<svg fill="#000000" width="256px" height="256px" viewBox="0 0 24 24" id="favourite" data-name="Flat Line" xmlns="http://www.w3.org/2000/svg" class="icon flat-line">
    <g id="SVGRepo_bgCarrier" stroke-width="0"></g>
    <g id="SVGRepo_tracerCarrier" stroke-linecap="round" stroke-linejoin="round"></g>
    <g id="SVGRepo_iconCarrier">
        <path id="secondary" d="M19.57,5.44a4.91,4.91,0,0,1,0,6.93L12,20,4.43,12.37A4.91,4.91,0,0,1,7.87,4a4.9,4.9,0,0,1,3.44,1.44,4.46,4.46,0,0,1,.69.88,4.46,4.46,0,0,1,.69-.88,4.83,4.83,0,0,1,6.88,0Z" style="fill: #ffffff; stroke-width:1.6799999999999997;"></path>
        <path id="primary" d="M19.57,5.44a4.91,4.91,0,0,1,0,6.93L12,20,4.43,12.37A4.91,4.91,0,0,1,7.87,4a4.9,4.9,0,0,1,3.44,1.44,4.46,4.46,0,0,1,.69.88,4.46,4.46,0,0,1,.69-.88,4.83,4.83,0,0,1,6.88,0Z" style="fill: none; stroke: #000000; stroke-linecap: round; stroke-linejoin: round; stroke-width:1.6799999999999997;"></path>
    </g>
</svg>