<svg width="100.000000" height="100.000000" viewBox="0 0 100 100" fill="none" xmlns="http://www.w3.org/2000/svg" xmlns:xlink="http://www.w3.org/1999/xlink">
	<desc>
			Created with Pixso.
	</desc>
	<defs>
		<clipPath id="clip2_2">
			<rect id="svg" width="62.000000" height="60.000000" transform="translate(19.000000 11.000000)" fill="white" fill-opacity="0"/>
		</clipPath>
		<clipPath id="clip2_1">
			<rect id="Frame 1" width="100.000000" height="100.000000" fill="white" fill-opacity="0"/>
		</clipPath>
	</defs>
	<rect id="Frame 1" width="100.000000" height="100.000000" fill="#4C446C" fill-opacity="1.000000"/>
	<g clip-path="url(#clip2_1)">
		<g clip-path="url(#clip2_2)">
			<rect id="rect" x="19.000000" y="11.000000" width="62.000000" height="60.000000" fill="#4C446C" fill-opacity="1.000000"/>
			<rect id="rect" x="19.000000" y="11.000000" width="62.000000" height="60.000000" stroke="#FFFFFF" stroke-opacity="1.000000" stroke-width="0.000000"/>
			<path id="path" d="M76.22 23.5C75.4 22.68 74.41 22.27 73.25 22.25L56.45 22.25L56.45 33.75L58.52 31.75C59.08 31.16 59.76 30.9 60.58 30.95C61.4 31 62.05 31.35 62.52 32C62.85 32.55 62.97 33.14 62.87 33.77C62.78 34.4 62.49 34.93 62.01 35.37L55.68 41.5C55.19 42.01 54.59 42.26 53.87 42.26C53.15 42.26 52.55 42.01 52.06 41.5L45.73 35.37C45.25 34.93 44.96 34.4 44.87 33.77C44.77 33.14 44.89 32.55 45.22 32C45.69 31.35 46.34 31 47.16 30.95C47.98 30.9 48.66 31.16 49.22 31.75L51.29 33.75L51.29 22.25L33.85 22.25L33.33 18C33.2 17.06 32.77 16.28 32.03 15.66C31.29 15.04 30.43 14.74 29.46 14.75L25.58 14.75C24.92 14.73 24.34 14.93 23.83 15.33C23.31 15.73 23 16.24 22.87 16.87C22.75 17.63 22.95 18.3 23.47 18.89C24 19.47 24.66 19.75 25.45 19.75L28.3 19.75L32.43 53.37C31.01 54.17 29.97 55.29 29.31 56.74C28.64 58.19 28.48 59.69 28.81 61.25C29.13 62.7 29.82 63.96 30.89 65.02C31.97 66.09 33.26 66.79 34.75 67.12C36.67 67.49 38.49 67.21 40.2 66.29C41.91 65.36 43.11 64.02 43.8 62.25L57.49 62.25C58.03 63.87 59.03 65.17 60.49 66.13C61.95 67.1 63.56 67.53 65.33 67.43C67.09 67.32 68.64 66.71 69.97 65.58C71.3 64.45 72.13 63.05 72.47 61.37C72.73 60.26 72.72 59.14 72.45 58.03C72.18 56.92 71.67 55.92 70.93 55.03C70.19 54.14 69.29 53.45 68.22 52.97C67.15 52.48 66.03 52.24 64.85 52.25C63.21 52.27 61.72 52.74 60.37 53.65C59.03 54.56 58.07 55.76 57.49 57.25L43.8 57.25C43.3 55.92 42.48 54.82 41.34 53.95C40.2 53.07 38.91 52.54 37.47 52.37L37.21 49.75L69.89 49.75C70.84 49.72 71.67 49.4 72.38 48.79C73.09 48.17 73.51 47.41 73.63 46.5L77.12 26.75C77.27 25.54 76.97 24.46 76.22 23.5ZM64.85 57.25C65.56 57.25 66.17 57.49 66.68 57.98C67.18 58.47 67.43 59.05 67.43 59.75C67.43 60.44 67.18 61.02 66.68 61.51C66.17 62 65.56 62.25 64.85 62.25C64.14 62.25 63.53 62 63.02 61.51C62.52 61.02 62.27 60.44 62.27 59.75C62.27 59.05 62.52 58.47 63.02 57.98C63.53 57.49 64.14 57.25 64.85 57.25ZM39.02 59.75C39.02 60.44 38.76 61.02 38.26 61.51C37.75 62 37.15 62.25 36.43 62.25C35.72 62.25 35.11 62 34.61 61.51C34.1 61.02 33.85 60.44 33.85 59.75C33.85 59.05 34.1 58.47 34.61 57.98C35.11 57.49 35.72 57.25 36.43 57.25C37.15 57.25 37.75 57.49 38.26 57.98C38.76 58.47 39.02 59.05 39.02 59.75Z" fill="#FFFFFF" fill-opacity="1.000000" fill-rule="nonzero"/>
			<path id="path" d="M73.25 22.25L56.45 22.25L56.45 33.75L58.52 31.75C59.08 31.16 59.76 30.9 60.58 30.95C61.4 31 62.05 31.35 62.52 32C62.85 32.55 62.97 33.14 62.87 33.77C62.78 34.4 62.49 34.93 62.01 35.37L55.68 41.5C55.19 42.01 54.59 42.26 53.87 42.26C53.15 42.26 52.55 42.01 52.06 41.5L45.73 35.37C45.25 34.93 44.96 34.4 44.87 33.77C44.77 33.14 44.89 32.55 45.22 32C45.69 31.35 46.34 31 47.16 30.95C47.98 30.9 48.66 31.16 49.22 31.75L51.29 33.75L51.29 22.25L33.85 22.25L33.33 18C33.2 17.06 32.77 16.28 32.03 15.66C31.29 15.04 30.43 14.74 29.46 14.75L25.58 14.75C24.92 14.73 24.34 14.93 23.83 15.33C23.31 15.73 23 16.24 22.87 16.87C22.75 17.63 22.95 18.3 23.47 18.89C24 19.47 24.66 19.75 25.45 19.75L28.3 19.75L32.43 53.37C31.01 54.17 29.97 55.29 29.31 56.74C28.64 58.19 28.48 59.69 28.81 61.25C29.13 62.7 29.82 63.96 30.89 65.02C31.97 66.09 33.26 66.79 34.75 67.12C36.67 67.49 38.49 67.21 40.2 66.29C41.91 65.36 43.11 64.02 43.8 62.25L57.49 62.25C58.03 63.87 59.03 65.17 60.49 66.13C61.95 67.1 63.56 67.53 65.33 67.43C67.09 67.32 68.64 66.71 69.97 65.58C71.3 64.45 72.13 63.05 72.47 61.37C72.73 60.26 72.72 59.14 72.45 58.03C72.18 56.92 71.67 55.92 70.93 55.03C70.19 54.14 69.29 53.45 68.22 52.97C67.15 52.48 66.03 52.24 64.85 52.25C63.21 52.27 61.72 52.74 60.37 53.65C59.03 54.56 58.07 55.76 57.49 57.25L43.8 57.25C43.3 55.92 42.48 54.82 41.34 53.95C40.2 53.07 38.91 52.54 37.47 52.37L37.21 49.75L69.89 49.75C70.84 49.72 71.67 49.4 72.38 48.79C73.09 48.17 73.51 47.41 73.63 46.5L77.12 26.75C77.27 25.54 76.97 24.46 76.22 23.5C75.4 22.68 74.41 22.27 73.25 22.25ZM66.68 57.98C67.18 58.47 67.43 59.05 67.43 59.75C67.43 60.44 67.18 61.02 66.68 61.51C66.17 62 65.56 62.25 64.85 62.25C64.14 62.25 63.53 62 63.02 61.51C62.52 61.02 62.27 60.44 62.27 59.75C62.27 59.05 62.52 58.47 63.02 57.98C63.53 57.49 64.14 57.25 64.85 57.25C65.56 57.25 66.17 57.49 66.68 57.98ZM38.26 61.51C37.75 62 37.15 62.25 36.43 62.25C35.72 62.25 35.11 62 34.61 61.51C34.1 61.02 33.85 60.44 33.85 59.75C33.85 59.05 34.1 58.47 34.61 57.98C35.11 57.49 35.72 57.25 36.43 57.25C37.15 57.25 37.75 57.49 38.26 57.98C38.76 58.47 39.02 59.05 39.02 59.75C39.02 60.44 38.76 61.02 38.26 61.51Z" stroke="#FFFFFF" stroke-opacity="1.000000" stroke-width="0.000000"/>
		</g>
		<path id="КупиТут" d="M22.44 81.05L24.01 81.05L26.56 85L29.13 85L25.83 79.93L29.03 75.2L26.64 75.2L24.06 79.16L22.44 79.16L22.44 75.2L20.18 75.2L20.18 85L22.44 85L22.44 81.05ZM61.62 77.04L64.76 77.04L64.76 75.2L56.26 75.2L56.26 77.04L59.39 77.04L59.39 85L61.62 85L61.62 77.04ZM34.02 85.46L37.42 77.46L35.32 77.46L33.19 82.57L31.08 77.46L28.82 77.46L32.09 85.05L32.06 85.12Q31.83 85.62 31.55 85.84Q31.55 85.84 31.55 85.84Q31.27 86.06 30.83 86.06Q30.5 86.06 30.17 85.93Q29.91 85.83 29.7 85.67Q29.65 85.63 29.6 85.58L28.8 87.14Q29.16 87.46 29.73 87.64Q30.17 87.78 30.61 87.81Q30.75 87.82 30.89 87.82Q31.86 87.82 32.57 87.4Q32.65 87.35 32.74 87.29Q33.5 86.76 34.02 85.46ZM45.96 85L45.96 77.46L38.47 77.46L38.47 85L40.64 85L40.64 79.26L43.78 79.26L43.78 85L45.96 85ZM50.23 77.46L48.06 77.46L48.06 85L50.07 85L53.73 80.51L53.73 85L55.9 85L55.9 77.46L53.9 77.46L50.23 81.94L50.23 77.46ZM69.72 85.46L73.12 77.46L71.02 77.46L68.89 82.57L66.78 77.46L64.52 77.46L67.79 85.05L67.76 85.12Q67.53 85.62 67.25 85.84Q67.25 85.84 67.25 85.84Q66.97 86.06 66.53 86.06Q66.2 86.06 65.87 85.93Q65.61 85.83 65.4 85.67Q65.35 85.63 65.3 85.58L64.5 87.14Q64.86 87.46 65.43 87.64Q65.87 87.78 66.31 87.81Q66.45 87.82 66.59 87.82Q67.56 87.82 68.27 87.4Q68.35 87.35 68.44 87.29Q69.2 86.76 69.72 85.46ZM78.02 79.26L80.57 79.26L80.57 77.46L73.3 77.46L73.3 79.26L75.85 79.26L75.85 85L78.02 85L78.02 79.26Z" fill="#FFFFFF" fill-opacity="1.000000" fill-rule="evenodd"/>
	</g>
</svg>
