<svg width="62.000000" height="60.000000" viewBox="0 0 62 60" fill="none" xmlns="http://www.w3.org/2000/svg" xmlns:xlink="http://www.w3.org/1999/xlink">
	<desc>
			Created with Pixso.
	</desc>
	<defs>
		<clipPath id="clip2_2">
			<rect id="svg" width="62.000000" height="60.000000" fill="white" fill-opacity="0"/>
		</clipPath>
	</defs>
	<g clip-path="url(#clip2_2)">
		<rect id="rect" width="62.000000" height="60.000000" fill="#4C446C" fill-opacity="1.000000"/>
		<rect id="rect" width="62.000000" height="60.000000" stroke="#FFFFFF" stroke-opacity="1.000000" stroke-width="0.000000"/>
		<path id="path" d="M57.22 12.5C56.4 11.68 55.41 11.27 54.25 11.25L37.45 11.25L37.45 22.75L39.52 20.75C40.08 20.16 40.76 19.9 41.58 19.95C42.4 20 43.05 20.35 43.52 21C43.85 21.55 43.97 22.14 43.87 22.77C43.78 23.4 43.49 23.93 43.01 24.37L36.68 30.5C36.19 31.01 35.59 31.26 34.87 31.26C34.15 31.26 33.55 31.01 33.06 30.5L26.73 24.37C26.25 23.93 25.96 23.4 25.87 22.77C25.77 22.14 25.89 21.55 26.22 21C26.69 20.35 27.34 20 28.16 19.95C28.98 19.9 29.66 20.16 30.22 20.75L32.29 22.75L32.29 11.25L14.85 11.25L14.33 7C14.2 6.06 13.77 5.28 13.03 4.66C12.29 4.04 11.43 3.74 10.46 3.75L6.58 3.75C5.92 3.73 5.34 3.93 4.83 4.33C4.31 4.73 4 5.24 3.87 5.87C3.75 6.63 3.95 7.3 4.47 7.89C5 8.47 5.66 8.75 6.45 8.75L9.3 8.75L13.43 42.37C12.01 43.17 10.97 44.29 10.31 45.74C9.64 47.19 9.48 48.69 9.81 50.25C10.13 51.7 10.82 52.96 11.89 54.02C12.97 55.09 14.26 55.79 15.75 56.12C17.67 56.49 19.49 56.21 21.2 55.29C22.91 54.36 24.11 53.02 24.8 51.25L38.49 51.25C39.03 52.87 40.03 54.17 41.49 55.13C42.95 56.1 44.56 56.53 46.33 56.43C48.09 56.32 49.64 55.71 50.97 54.58C52.3 53.45 53.13 52.05 53.47 50.37C53.73 49.26 53.72 48.14 53.45 47.03C53.18 45.92 52.67 44.92 51.93 44.03C51.19 43.14 50.29 42.45 49.22 41.97C48.15 41.48 47.03 41.24 45.85 41.25C44.21 41.27 42.72 41.74 41.37 42.65C40.03 43.56 39.07 44.76 38.49 46.25L24.8 46.25C24.3 44.92 23.48 43.82 22.34 42.95C21.2 42.07 19.91 41.54 18.47 41.37L18.21 38.75L50.89 38.75C51.84 38.72 52.67 38.4 53.38 37.79C54.09 37.17 54.51 36.41 54.63 35.5L58.12 15.75C58.27 14.54 57.97 13.46 57.22 12.5ZM45.85 46.25C46.56 46.25 47.17 46.49 47.68 46.98C48.18 47.47 48.43 48.05 48.43 48.75C48.43 49.44 48.18 50.02 47.68 50.51C47.17 51 46.56 51.25 45.85 51.25C45.14 51.25 44.53 51 44.02 50.51C43.52 50.02 43.27 49.44 43.27 48.75C43.27 48.05 43.52 47.47 44.02 46.98C44.53 46.49 45.14 46.25 45.85 46.25ZM20.02 48.75C20.02 49.44 19.76 50.02 19.26 50.51C18.75 51 18.15 51.25 17.43 51.25C16.72 51.25 16.11 51 15.61 50.51C15.1 50.02 14.85 49.44 14.85 48.75C14.85 48.05 15.1 47.47 15.61 46.98C16.11 46.49 16.72 46.25 17.43 46.25C18.15 46.25 18.75 46.49 19.26 46.98C19.76 47.47 20.02 48.05 20.02 48.75Z" fill="#FFFFFF" fill-opacity="1.000000" fill-rule="nonzero"/>
		<path id="path" d="M54.25 11.25L37.45 11.25L37.45 22.75L39.52 20.75C40.08 20.16 40.76 19.9 41.58 19.95C42.4 20 43.05 20.35 43.52 21C43.85 21.55 43.97 22.14 43.87 22.77C43.78 23.4 43.49 23.93 43.01 24.37L36.68 30.5C36.19 31.01 35.59 31.26 34.87 31.26C34.15 31.26 33.55 31.01 33.06 30.5L26.73 24.37C26.25 23.93 25.96 23.4 25.87 22.77C25.77 22.14 25.89 21.55 26.22 21C26.69 20.35 27.34 20 28.16 19.95C28.98 19.9 29.66 20.16 30.22 20.75L32.29 22.75L32.29 11.25L14.85 11.25L14.33 7C14.2 6.06 13.77 5.28 13.03 4.66C12.29 4.04 11.43 3.74 10.46 3.75L6.58 3.75C5.92 3.73 5.34 3.93 4.83 4.33C4.31 4.73 4 5.24 3.87 5.87C3.75 6.63 3.95 7.3 4.47 7.89C5 8.47 5.66 8.75 6.45 8.75L9.3 8.75L13.43 42.37C12.01 43.17 10.97 44.29 10.31 45.74C9.64 47.19 9.48 48.69 9.81 50.25C10.13 51.7 10.82 52.96 11.89 54.02C12.97 55.09 14.26 55.79 15.75 56.12C17.67 56.49 19.49 56.21 21.2 55.29C22.91 54.36 24.11 53.02 24.8 51.25L38.49 51.25C39.03 52.87 40.03 54.17 41.49 55.13C42.95 56.1 44.56 56.53 46.33 56.43C48.09 56.32 49.64 55.71 50.97 54.58C52.3 53.45 53.13 52.05 53.47 50.37C53.73 49.26 53.72 48.14 53.45 47.03C53.18 45.92 52.67 44.92 51.93 44.03C51.19 43.14 50.29 42.45 49.22 41.97C48.15 41.48 47.03 41.24 45.85 41.25C44.21 41.27 42.72 41.74 41.37 42.65C40.03 43.56 39.07 44.76 38.49 46.25L24.8 46.25C24.3 44.92 23.48 43.82 22.34 42.95C21.2 42.07 19.91 41.54 18.47 41.37L18.21 38.75L50.89 38.75C51.84 38.72 52.67 38.4 53.38 37.79C54.09 37.17 54.51 36.41 54.63 35.5L58.12 15.75C58.27 14.54 57.97 13.46 57.22 12.5C56.4 11.68 55.41 11.27 54.25 11.25ZM47.68 46.98C48.18 47.47 48.43 48.05 48.43 48.75C48.43 49.44 48.18 50.02 47.68 50.51C47.17 51 46.56 51.25 45.85 51.25C45.14 51.25 44.53 51 44.02 50.51C43.52 50.02 43.27 49.44 43.27 48.75C43.27 48.05 43.52 47.47 44.02 46.98C44.53 46.49 45.14 46.25 45.85 46.25C46.56 46.25 47.17 46.49 47.68 46.98ZM19.26 50.51C18.75 51 18.15 51.25 17.43 51.25C16.72 51.25 16.11 51 15.61 50.51C15.1 50.02 14.85 49.44 14.85 48.75C14.85 48.05 15.1 47.47 15.61 46.98C16.11 46.49 16.72 46.25 17.43 46.25C18.15 46.25 18.75 46.49 19.26 46.98C19.76 47.47 20.02 48.05 20.02 48.75C20.02 49.44 19.76 50.02 19.26 50.51Z" stroke="#FFFFFF" stroke-opacity="1.000000" stroke-width="0.000000"/>
	</g>
</svg>
