<svg width="60.383942" height="12.625977" viewBox="0 0 60.3839 12.626" fill="none" xmlns="http://www.w3.org/2000/svg" xmlns:xlink="http://www.w3.org/1999/xlink">
	<desc>
			Created with Pixso.
	</desc>
	<defs/>
	<path id="КупиТут" d="M2.25 5.85L3.82 5.85L6.37 9.79L8.94 9.79L5.64 4.73L8.84 0L6.45 0L3.87 3.96L2.25 3.96L2.25 0L0 0L0 9.79L2.25 9.79L2.25 5.85ZM41.43 1.84L44.57 1.84L44.57 0L36.07 0L36.07 1.84L39.2 1.84L39.2 9.79L41.43 9.79L41.43 1.84ZM13.83 10.26L17.23 2.26L15.13 2.26L13 7.37L10.89 2.26L8.63 2.26L11.9 9.85L11.87 9.92Q11.64 10.42 11.36 10.64Q11.36 10.64 11.36 10.64Q11.08 10.86 10.64 10.86Q10.32 10.86 9.98 10.73Q9.72 10.63 9.51 10.47Q9.46 10.43 9.41 10.38L8.61 11.94Q8.97 12.26 9.54 12.44Q9.98 12.58 10.42 12.61Q10.56 12.62 10.7 12.62Q11.67 12.62 12.38 12.2Q12.46 12.15 12.55 12.09Q13.31 11.56 13.83 10.26ZM25.77 9.79L25.77 2.26L18.28 2.26L18.28 9.79L20.45 9.79L20.45 4.06L23.59 4.06L23.59 9.79L25.77 9.79ZM30.04 2.26L27.87 2.26L27.87 9.79L29.89 9.79L33.54 5.31L33.54 9.79L35.71 9.79L35.71 2.26L33.71 2.26L30.04 6.74L30.04 2.26ZM49.53 10.26L52.93 2.26L50.83 2.26L48.7 7.37L46.59 2.26L44.33 2.26L47.6 9.85L47.57 9.92Q47.34 10.42 47.06 10.64Q47.06 10.64 47.06 10.64Q46.78 10.86 46.34 10.86Q46.02 10.86 45.68 10.73Q45.42 10.63 45.21 10.47Q45.16 10.43 45.11 10.38L44.31 11.94Q44.67 12.26 45.24 12.44Q45.68 12.58 46.12 12.61Q46.26 12.62 46.4 12.62Q47.37 12.62 48.08 12.2Q48.16 12.15 48.25 12.09Q49.01 11.56 49.53 10.26ZM57.83 4.06L60.38 4.06L60.38 2.26L53.11 2.26L53.11 4.06L55.66 4.06L55.66 9.79L57.83 9.79L57.83 4.06Z" fill="#FFFFFF" fill-opacity="1.000000" fill-rule="evenodd"/>
</svg>
